HIERARCHY
ROOT Hips
{
	OFFSET 0.00000 0.00000 0.00000
	CHANNELS 6 Xposition Yposition Zposition Zrotation Yrotation Xrotation 
	JOINT LHipJoint
	{
		OFFSET 0 0 0
		CHANNELS 3 Zrotation Yrotation Xrotation
		JOINT LeftHip
		{
			OFFSET 1.37959 -1.78713 0.86582
			CHANNELS 3 Zrotation Yrotation Xrotation
			JOINT LeftKnee
			{
				OFFSET 2.54611 -6.99539 0.00000
				CHANNELS 3 Zrotation Yrotation Xrotation
				JOINT LeftAnkle
				{
					OFFSET 2.59951 -7.14211 0.00000
					CHANNELS 3 Zrotation Yrotation Xrotation
					JOINT LeftToe
					{
						OFFSET 0.18493 -0.50810 1.96120
						CHANNELS 3 Zrotation Yrotation Xrotation
						End Site
						{
							OFFSET 0.00000 -0.00000 1.02054
						}
					}
				}
			}
		}
	}
	JOINT RHipJoint
	{
		OFFSET 0 0 0
		CHANNELS 3 Zrotation Yrotation Xrotation
		JOINT RightHip
		{
			OFFSET -1.33564 -1.78713 0.86582
			CHANNELS 3 Zrotation Yrotation Xrotation
			JOINT RightKnee
			{
				OFFSET -2.52705 -6.94302 0.00000
				CHANNELS 3 Zrotation Yrotation Xrotation
				JOINT RightAnkle
				{
					OFFSET -2.55964 -7.03257 0.00000
					CHANNELS 3 Zrotation Yrotation Xrotation
					JOINT RightToe
					{
						OFFSET -0.25804 -0.70896 2.12109
						CHANNELS 3 Zrotation Yrotation Xrotation
						End Site
						{
							OFFSET -0.00000 -0.00000 1.11821
						}
					}
				}
			}
		}
	}
	JOINT lowerback
	{
		OFFSET 0 0 0
		CHANNELS 3 Zrotation Yrotation Xrotation
		JOINT Chest
		{
			OFFSET -0.02031 2.24248 -0.18900
			CHANNELS 3 Zrotation Yrotation Xrotation
			JOINT Chest2
			{
				OFFSET 0.08342 2.24689 -0.03799
				CHANNELS 3 Zrotation Yrotation Xrotation
				JOINT lowerneck
				{
					OFFSET 0 0 0
					CHANNELS 3 Zrotation Yrotation Xrotation
					JOINT Neck
					{
						OFFSET -0.11607 1.55844 0.24628
						CHANNELS 3 Zrotation Yrotation Xrotation
						JOINT Head
						{
							OFFSET 0.06877 1.60174 -0.17013
							CHANNELS 3 Zrotation Yrotation Xrotation
							End Site
							{
								OFFSET 0.03358 1.61266 -0.08543
							}
						}
					}
				}
				JOINT LeftCollar
				{
					OFFSET 0 0 0
					CHANNELS 3 Zrotation Yrotation Xrotation
					JOINT LeftShoulder
					{
						OFFSET 3.47537 0.55866 -0.72348
CHANNELS 3 Zrotation Xrotation Yrotation
						JOINT LeftElbow
						{
OFFSET 0 -5.381540 0.000000
CHANNELS 3 Zrotation Xrotation Yrotation
							JOINT LeftWrist
							{
OFFSET 0 -3.333120 0.000000
CHANNELS 3 Zrotation Xrotation Yrotation
								JOINT lhand
								{
									OFFSET 0 0 0
CHANNELS 3 Zrotation Xrotation Yrotation
									JOINT LFingers
									{
OFFSET 0 -0.710790 0.000000
CHANNELS 3 Zrotation Xrotation Yrotation
										End Site
										{
OFFSET 0 -0.573060 0.000000
										}
									}
								}
								JOINT LThumb
								{
OFFSET 0 0.000000 0.000000
CHANNELS 3 Zrotation Xrotation Yrotation
									End Site
									{
OFFSET 0 -0.581810 0.581810
									}
								}
							}
						}
					}
				}
				JOINT RightCollar
				{
					OFFSET 0 0 0
					CHANNELS 3 Zrotation Yrotation Xrotation
					JOINT RightShoulder
					{
						OFFSET -3.27844 0.90739 -0.35708
CHANNELS 3 Zrotation Xrotation Yrotation
						JOINT RightElbow
						{
OFFSET 0 -5.169540 0.000000
CHANNELS 3 Zrotation Xrotation Yrotation
							JOINT RightWrist
							{
OFFSET 0 -3.382870 0.000000
CHANNELS 3 Zrotation Xrotation Yrotation
								JOINT rhand
								{
									OFFSET 0 0 0
CHANNELS 3 Zrotation Xrotation Yrotation
									JOINT RFingers
									{
OFFSET 0 -0.817970 0.000000
CHANNELS 3 Zrotation Xrotation Yrotation
										End Site
										{
OFFSET 0 -0.659470 0.000000
										}
									}
								}
								JOINT RThumb
								{
OFFSET 0 0.000000 0.000000
CHANNELS 3 Zrotation Xrotation Yrotation
									End Site
									{
OFFSET 0 -0.669530 0.669530
									}
								}
							}
						}
					}
				}
			}
		}
	}
}
MOTION
Frames: 7
Frame Time: 0.008333333333333333
2.719338 17.289686 1.827737 -6.946958 -11.018664 2.186596 0.000000 0.000000 0.000000 -1.639113 -8.984342 -49.570045 2.360771 9.580130 27.627627 0.038437 2.758908 -5.644019 1.778580 -8.387421 -23.898034 0.000000 0.000000 0.000000 32.268190 -3.034638 19.216531 0.000000 0.000000 0.000000 -0.176087 9.258446 -9.283016 -0.540519 -4.707229 13.076020 5.620513 0.400695 3.777203 4.518480 0.842527 0.317437 1.463250 0.387307 -1.780983 -9.828982 0.599634 -11.891221 6.986943 1.533525 13.558724 3.972895 0.786996 5.916791 0.000000 0.000000 0.000000 36.444785 -48.209495 2.027398 25.664270 -36.875230 8.685426 -4.638762 -18.602972 -38.531867 0.000000 0.000000 0.000000 -7.125000 0.000000 0.000000 -47.219482 62.098746 22.231271 0.000000 0.000000 0.000000 -1.858441 10.684039 -4.319745 -10.975612 -18.250894 -1.768286 -12.840032 -8.712425 -13.586886 0.000000 0.000000 0.000000 7.125000 0.000000 0.000000 9.970107 16.193311 6.900430
2.723015 17.282858 1.891610 -7.075675 -11.144593 2.363187 0.000000 0.000000 0.000000 -1.593339 -8.883825 -49.514534 2.346914 9.553991 27.544280 0.013712 2.990323 -4.812856 1.839141 -8.520662 -24.308303 0.000000 0.000000 0.000000 32.334770 -2.961715 19.315594 0.000000 0.000000 0.000000 -0.169461 9.267738 -9.193448 -0.580556 -4.874488 13.551859 5.873138 0.496485 3.652810 4.470039 0.968981 0.300711 1.267549 0.449120 -1.721150 -9.865747 0.602503 -11.976062 7.144829 1.526374 13.628173 4.032486 0.794187 5.951374 0.000000 0.000000 0.000000 35.969956 -48.103686 1.667993 25.706610 -36.917489 8.710879 -4.812687 -18.444117 -38.569601 0.000000 0.000000 0.000000 -7.125000 0.000000 0.000000 -47.429646 62.079839 22.334414 0.000000 0.000000 0.000000 -1.685122 10.397518 -4.453835 -10.953836 -18.217483 -1.761458 -12.894896 -8.540076 -13.701058 0.000000 0.000000 0.000000 7.125000 0.000000 0.000000 9.931120 16.074533 6.898491
2.726749 17.276068 1.955680 -7.200195 -11.271230 2.536714 0.000000 0.000000 0.000000 -1.551022 -8.787458 -49.454168 2.333647 9.528968 27.464488 -0.010847 3.226056 -3.985417 1.902352 -8.659000 -24.734738 0.000000 0.000000 0.000000 32.396435 -2.889727 19.417796 0.000000 0.000000 0.000000 -0.163038 9.276494 -9.106492 -0.618631 -5.033559 14.004402 6.121314 0.591786 3.527493 4.421180 1.094362 0.285741 1.073992 0.510508 -1.659030 -9.900801 0.604067 -12.064833 7.297989 1.518169 13.699947 4.090286 0.800607 5.987545 0.000000 0.000000 0.000000 35.494306 -47.996612 1.311619 25.749095 -36.959888 8.736419 -4.987328 -18.285878 -38.606673 0.000000 0.000000 0.000000 -7.125000 0.000000 0.000000 -47.639567 62.060283 22.436694 0.000000 0.000000 0.000000 -1.513646 10.110983 -4.580712 -10.932972 -18.185470 -1.754916 -12.951010 -8.375242 -13.816091 0.000000 0.000000 0.000000 7.125000 0.000000 0.000000 9.891287 15.954789 6.896129
2.732769 17.270735 2.027472 -7.159673 -11.425723 2.589720 0.000000 0.000000 0.000000 -1.644671 -8.854321 -49.202795 2.343626 9.547835 27.524524 -0.028865 3.631638 -3.304464 2.069813 -8.997800 -25.797033 0.000000 0.000000 0.000000 32.264728 -2.854497 19.643515 0.000000 0.000000 0.000000 -0.164573 9.264172 -9.122288 -0.579564 -4.870583 13.540643 6.194480 0.667861 3.365891 4.355852 1.177547 0.339838 0.964789 0.555191 -1.506962 -9.868561 0.554334 -12.308166 7.265264 1.468517 13.863165 4.077641 0.776690 6.086163 0.000000 0.000000 0.000000 34.986348 -47.839776 1.074427 25.797293 -37.007803 8.765427 -5.190140 -18.151910 -38.617703 0.000000 0.000000 0.000000 -7.125000 0.000000 0.000000 -47.839914 62.015236 22.505011 0.000000 0.000000 0.000000 -1.414664 9.823936 -4.423876 -10.947960 -18.208458 -1.759603 -13.056294 -8.506019 -13.964968 0.000000 0.000000 0.000000 7.125000 0.000000 0.000000 9.818162 15.797065 6.877141
2.738789 17.265402 2.099264 -7.119152 -11.580215 2.642726 0.000000 0.000000 0.000000 -1.738319 -8.921184 -48.951422 2.353605 9.566702 27.584559 -0.046884 4.037220 -2.623510 2.237273 -9.336600 -26.859328 0.000000 0.000000 0.000000 32.133022 -2.819268 19.869233 0.000000 0.000000 0.000000 -0.166109 9.251850 -9.138085 -0.540496 -4.707607 13.076883 6.267645 0.743935 3.204288 4.290525 1.260732 0.393934 0.855586 0.599874 -1.354893 -9.836321 0.504601 -12.551499 7.232540 1.418864 14.026384 4.064996 0.752773 6.184781 0.000000 0.000000 0.000000 34.478391 -47.682941 0.837235 25.845491 -37.055718 8.794435 -5.392951 -18.017941 -38.628732 0.000000 0.000000 0.000000 -7.125000 0.000000 0.000000 -48.040261 61.970190 22.573329 0.000000 0.000000 0.000000 -1.315683 9.536890 -4.267041 -10.962949 -18.231446 -1.764289 -13.161579 -8.636796 -14.113844 0.000000 0.000000 0.000000 7.125000 0.000000 0.000000 9.745037 15.639341 6.858153
2.741433 17.261623 2.175053 -7.001694 -11.790061 2.670441 0.000000 0.000000 0.000000 -1.807477 -9.097200 -48.639766 2.372466 9.602066 27.697462 -0.066568 4.569697 -2.254452 2.313633 -9.490954 -27.343440 0.000000 0.000000 0.000000 31.919229 -2.750133 20.147197 0.000000 0.000000 0.000000 -0.167955 9.247388 -9.162386 -0.500563 -4.531286 12.576976 6.180567 0.816546 3.013265 4.238275 1.331994 0.451650 0.850430 0.639761 -1.186861 -9.829705 0.456732 -12.720029 7.176834 1.375162 14.119461 4.046733 0.728411 6.248007 0.000000 0.000000 0.000000 34.096506 -47.447038 0.592049 25.885429 -37.095352 8.818491 -5.464916 -17.998166 -38.642892 0.000000 0.000000 0.000000 -7.125000 0.000000 0.000000 -48.125082 61.961268 22.613692 0.000000 0.000000 0.000000 -1.278028 9.281705 -3.935107 -10.985909 -18.266646 -1.771485 -13.249366 -8.887451 -14.228394 0.000000 0.000000 0.000000 7.125000 0.000000 0.000000 9.684345 15.517387 6.840119
2.741312 17.259119 2.254117 -6.821184 -12.045272 2.677431 0.000000 0.000000 0.000000 -1.856564 -9.362673 -48.278705 2.398605 9.650951 27.853691 -0.087617 5.206169 -2.141007 2.315329 -9.494146 -27.353702 0.000000 0.000000 0.000000 31.638162 -2.653212 20.467978 0.000000 0.000000 0.000000 -0.170055 9.249368 -9.193656 -0.459920 -4.344029 12.047445 5.962161 0.886318 2.798132 4.196743 1.393484 0.512332 0.930544 0.675718 -1.005745 -9.844087 0.410393 -12.827252 7.102295 1.336337 14.155054 4.023866 0.703686 6.282226 0.000000 0.000000 0.000000 33.817943 -47.146336 0.340312 25.918598 -37.128197 8.838489 -5.429646 -18.071978 -38.659618 0.000000 0.000000 0.000000 -7.125000 0.000000 0.000000 -48.115225 61.981953 22.631145 0.000000 0.000000 0.000000 -1.290633 9.052633 -3.459672 -11.015401 -18.311854 -1.780736 -13.322815 -9.236351 -14.314811 0.000000 0.000000 0.000000 7.125000 0.000000 0.000000 9.633845 15.424748 6.822868
